<svg xmlns="http://www.w3.org/2000/svg" version="1.1" xmlns:xlink="http://www.w3.org/1999/xlink" xmlns:svgjs="http://svgjs.dev/svgjs" width="100%" height="100%" viewBox="0 0 1000 600"><rect width="1000" height="600" x="0" y="0" fill="#00214d"/><g><circle r="166.66666666666666" cx="350.401865641276" cy="372.62401103185255" fill="white" transform="matrix(0.6803272403215401,0,0,0.6803272403215399,0,46.493747758745926)"/><path d="M297.80524351242667 297.6239866950147L318.4574172986073 297.6239866950147L278.8740842084277 370.02736789276514L321.26538829585115 447.6239857735902L300.40186185396396 447.6239857735902L259.3088669373091 370.02736789276514L297.80524351242667 297.6239866950147ZM202.1530701869582 297.6239866950147L222.8052439731389 297.6239866950147L261.2714273117269 370.02736789276514L220.17843239507204 447.6239857735902L199.3149059531848 447.6239857735902L241.4948573849018 370.02736789276514L202.1530701869582 297.6239866950147ZM248.65065444239423 362.4186722873302L271.7182871509352 362.4186722873302L271.7182871509352 377.1831649502576L248.65065444239423 377.1831649502576L248.65065444239423 362.4186722873302ZM465.83060479911603 297.6239866950147L487.3583824446523 297.6239866950147Q495.17843070579386 297.6239866950147 495.17843070579386 305.65538761186275L495.17843070579386 305.65538761186275L501.4888171404601 447.6239857735902L482.3463051807547 447.6239857735902L476.911522605444 313.50562910953374L472.3523438894889 313.50562910953374L438.86804457826906 424.1336477536362Q437.1470300960873 430.65538684400906 430.6252910057144 430.65538684400906L430.6252910057144 430.65538684400906L413.44533942042676 430.65538684400906Q406.71224767434734 430.65538684400906 404.74968729992963 424.1336477536362L404.74968729992963 424.1336477536362L371.26538798870973 313.50562910953374L366.91756192846117 313.50562910953374L361.69413200885697 447.6239857735902L342.581813285681 447.6239857735902L348.4393011724047 305.65538761186275Q348.8921997203473 297.6239866950147 356.50089532578227 297.6239866950147L356.50089532578227 297.6239866950147L378.24002562702515 297.6239866950147Q384.3088661694554 297.6239866950147 386.2714265438732 304.1457257853875L386.2714265438732 304.1457257853875L414.32094327978234 395.66142570631393Q416.0419577619641 400.67350297021164 417.24968722314424 405.65538699757974Q418.45741668432436 410.66746426147745 419.9670785107995 415.89089418108165L419.9670785107995 415.89089418108165L423.8921992596351 415.89089418108165Q425.40186108611033 410.66746426147745 426.70017025687895 405.65538699757974Q427.9984794276477 400.67350297021164 429.53833449065235 395.23872039490095L429.53833449065235 395.23872039490095L457.5878512265615 304.1457257853875Q459.30886570874316 297.6239866950147 465.83060479911603 297.6239866950147L465.83060479911603 297.6239866950147Z " fill="#234e70" transform="matrix(0.6803272403215401,0,0,0.6803272403215399,0,46.493747758745926)"/><path d="M695.2870962176935 297.62399430872995L713.8961170323978 297.62399430872995L713.8961170323978 437.59232311597896Q713.8961170323978 445.0715467927023 706.6246495689169 445.0715467927023L706.6246495689169 445.0715467927023L688.2530644264896 445.0715467927023Q685.047682850751 445.0715467927023 683.118518013501 443.58757384097146Q681.189353176251 442.07392143020604 679.9131364377624 439.0762960677098L679.9131364377624 439.0762960677098L630.1110041776768 334.60460026586156Q628.1818393404268 330.3307581648768 625.6294058634498 324.9884555386459Q623.0769723864728 319.64615291241506 621.7710761889498 315.13487513915345L621.7710761889498 315.13487513915345L618.3579383999688 315.13487513915345Q618.8031302854881 319.8539091256574 619.0108864987304 324.751019866369Q619.2186427119727 329.6778100661153 619.2186427119727 334.60460026586156L619.2186427119727 334.60460026586156L619.2186427119727 445.0715467927023L600.4018656840262 445.0715467927023L600.4018656840262 305.1032179854532Q600.4018656840262 297.62399430872995 607.8810893607495 297.62399430872995L607.8810893607495 297.62399430872995L625.6294058634498 297.62399430872995Q628.8347874391883 297.62399430872995 630.7639522764384 299.1079672604608Q632.6931171136885 300.6216196712262 633.9693338521769 303.61924503372245L633.9693338521769 303.61924503372245L682.2578137014971 405.53850735859373Q684.6024909652317 410.0201056728208 687.2736422783472 415.68888234843246Q689.9447935914627 421.3576590240441 692.2894708551974 426.9077178635173L692.2894708551974 426.9077178635173L695.9400443164551 426.9077178635173Q695.7322881032128 421.1499028108018 695.4948524309359 415.5701645122939Q695.2870962176935 410.0201056728208 695.2870962176935 404.4700468333476L695.2870962176935 404.4700468333476L695.2870962176935 297.62399430872995ZM791.8937353753686 338.43325048132704L791.8937353753686 338.43325048132704Q815.3998669307845 338.43325048132704 825.9657543471078 346.98093468329637Q836.531641763431 355.5286188852658 836.531641763431 372.4162310759623L836.531641763431 372.4162310759623Q836.769077435708 386.3062179041626 830.7738267107155 394.1119156302666Q824.7785759857231 401.91761335637057 811.7492934695267 401.91761335637057L811.7492934695267 401.91761335637057L751.054799743737 401.91761335637057L751.054799743737 387.79019085589334L807.0599389420573 387.79019085589334Q814.0939707332614 387.79019085589334 816.2308917837537 382.9821184922856Q818.3678128342461 378.1740461286778 818.3678128342461 372.4162310759623L818.3678128342461 372.4162310759623Q818.1600566210037 362.3845739222621 812.4022415682882 358.11073182127734Q806.6147470565381 353.8368897202927 792.7247602283379 353.8368897202927L792.7247602283379 353.8368897202927Q781.4168863361491 353.8368897202927 774.8874053485337 357.1313096731351Q768.3876038199527 360.4554090850121 765.7164525068373 368.6766192376007Q763.0453011937219 376.89782939018926 763.0453011937219 391.6485205303935L763.0453011937219 391.6485205303935Q763.0453011937219 408.3283765078477 766.3397211465642 417.0838169230593Q769.6638205584412 425.83925733827107 776.9352880219221 429.0446389140096Q784.1770760263685 432.2500204897482 796.1675774763534 432.2500204897482L796.1675774763534 432.2500204897482Q804.4778260060458 432.2500204897482 814.4204447826421 431.5080340138827Q824.3630635592385 430.76604753801735 832.2577996624464 429.6975870127711L832.2577996624464 429.6975870127711L834.1869644996964 441.86616521696374Q829.2898537589848 443.79533005421376 822.1074246726076 445.0715467927023Q814.9546750452652 446.3477635311907 807.3864129914381 447.0007116299523Q799.7884714785764 447.62398026967924 793.793220753584 447.62398026967924L793.793220753584 447.62398026967924Q775.8668274966759 447.62398026967924 764.9447865719372 442.1926392663445Q754.0524251062332 436.73161880397515 749.0365965293831 424.6520789768864Q744.020767952533 412.60221860883235 744.020767952533 392.7169810556396L744.020767952533 392.7169810556396Q744.020767952533 372.20847486272 749.0365965293831 360.33669124887354Q754.0524251062332 348.4945870940618 764.6479919815912 343.44907905817706Q775.2138793979144 338.43325048132704 791.8937353753686 338.43325048132704ZM937.2043668088485 341.01536341733856L956.4366562632797 341.01536341733856L918.387589780902 440.5899484784752Q917.5268854688981 442.72686952896754 915.9241946810288 443.8843684313176Q914.3215038931595 445.0715467927023 911.9768266294249 445.0715467927023L911.9768266294249 445.0715467927023L895.5344063242477 445.0715467927023Q893.3974852737554 445.0715467927023 891.6760766497476 443.8843684313176Q889.9546680257398 442.72686952896754 889.1236431727706 440.5899484784752L889.1236431727706 440.5899484784752L851.074576690393 341.01536341733856L870.5146223580663 341.01536341733856L896.1576749639746 413.8784353473209Q897.8790835879823 418.36003366154785 899.363056539713 423.04938818901724Q900.8767089504785 427.7684221755211 902.3606819022093 432.0422642765059L902.3606819022093 432.0422642765059L905.1505510514633 432.0422642765059Q906.8422802164364 427.5606659622788 908.4449710043056 422.9603498119134Q910.0476617921748 418.36003366154785 911.5613142029403 413.8784353473209L911.5613142029403 413.8784353473209L937.2043668088485 341.01536341733856ZM1019.8913396792888 338.43325048132704L1019.8913396792888 338.43325048132704Q1043.3974712347044 338.43325048132704 1053.9633586510279 346.98093468329637Q1064.5589255263858 355.5286188852658 1064.5589255263858 372.4162310759623L1064.5589255263858 372.4162310759623Q1064.766681739628 386.3062179041626 1058.7714310146357 394.1119156302666Q1052.805859748678 401.91761335637057 1039.7765772324815 401.91761335637057L1039.7765772324815 401.91761335637057L979.0820835066917 401.91761335637057L979.0820835066917 387.79019085589334L1035.0575432459773 387.79019085589334Q1042.121254496216 387.79019085589334 1044.2581755467086 382.9821184922856Q1046.3950965972008 378.1740461286778 1046.3950965972008 372.4162310759623L1046.3950965972008 372.4162310759623Q1046.1873403839586 362.3845739222621 1040.3998458722085 358.11073182127734Q1034.642030819493 353.8368897202927 1020.7520439912925 353.8368897202927L1020.7520439912925 353.8368897202927Q1009.4144906400692 353.8368897202927 1002.9146891114883 357.1313096731351Q996.3852081238729 360.4554090850121 993.7140568107574 368.6766192376007Q991.042905497642 376.89782939018926 991.042905497642 391.6485205303935L991.042905497642 391.6485205303935Q991.042905497642 408.3283765078477 994.367004909519 417.0838169230593Q997.6614248623614 425.83925733827107 1004.9328923258423 429.0446389140096Q1012.2043597893231 432.2500204897482 1024.1651817802735 432.2500204897482L1024.1651817802735 432.2500204897482Q1032.5051097690007 432.2500204897482 1042.4477285455969 431.5080340138827Q1052.3606678631586 430.76604753801735 1060.2850834254011 429.6975870127711L1060.2850834254011 429.6975870127711L1062.2142482626512 441.86616521696374Q1057.2874580629048 443.79533005421376 1050.1347084355625 445.0715467927023Q1042.98195880822 446.3477635311907 1035.3840172953583 447.0007116299523Q1027.7860757824965 447.62398026967924 1021.8205045165388 447.62398026967924L1021.8205045165388 447.62398026967924Q1003.864431800596 447.62398026967924 992.972070334892 442.1926392663445Q982.0797088691879 436.73161880397515 977.0342008333031 424.6520789768864Q972.0183722564531 412.60221860883235 972.0183722564531 392.7169810556396L972.0183722564531 392.7169810556396Q972.0183722564531 372.20847486272 977.0342008333031 360.33669124887354Q982.0797088691879 348.4945870940618 992.6455962855111 343.44907905817706Q1003.2114837018345 338.43325048132704 1019.8913396792888 338.43325048132704ZM1091.8937072972672 341.01536341733856L1106.0211297977444 341.01536341733856L1108.365807061479 360.8709215114967L1110.0575362264522 364.07630308723515L1110.0575362264522 445.0715467927023L1091.8937072972672 445.0715467927023L1091.8937072972672 341.01536341733856ZM1152.3804448098144 338.43325048132704L1157.0697993372837 338.43325048132704L1154.9328782867915 355.5286188852658L1148.9673070208337 355.5286188852658Q1139.7666747201029 355.5286188852658 1130.5957218784065 359.2682307236274Q1121.3950895776754 363.00784256198904 1108.1580508482366 369.86379759898534L1108.1580508482366 369.86379759898534L1106.6443984374714 358.52624424776207Q1118.1897080019369 349.1178557337887 1129.8240559435062 343.7755531075578Q1141.4880833441102 338.43325048132704 1152.3804448098144 338.43325048132704L1152.3804448098144 338.43325048132704ZM1263.0848270089323 297.62399430872995L1283.3855769886095 297.62399430872995L1244.475806194228 368.7953370737391L1286.1457666788287 445.0715467927023L1265.6372604859093 445.0715467927023L1225.2435167397966 368.7953370737391L1263.0848270089323 297.62399430872995ZM1169.0603007872687 297.62399430872995L1189.361050766946 297.62399430872995L1227.1726815770471 368.7953370737391L1186.7789378309344 445.0715467927023L1166.2704316380148 445.0715467927023L1207.7326359093734 368.7953370737391L1169.0603007872687 297.62399430872995ZM1214.7666677005773 361.3161133970159L1237.4417744030238 361.3161133970159L1237.4417744030238 375.82936886494315L1214.7666677005773 375.82936886494315L1214.7666677005773 361.3161133970159Z " fill="white" transform="matrix(0.6803272403215401,0,0,0.6803272403215399,0,46.493747758745926)"/></g></svg>